<svg viewBox="0 0 30 58" fill="none" xmlns="http://www.w3.org/2000/svg">
<path d="M0 4.36033C0 1.95219 1.98169 0 4.42623 0H25.5738C28.0183 0 30 1.95219 30 4.36033V52.3949C30 54.2601 28.8102 55.8552 27.1329 56.477C26.2104 56.819 25.2217 56.4283 24.4416 55.8289L15.0726 48.629L5.66134 56.1652C4.90773 56.7687 3.95009 57.1761 3.03237 56.8762C1.27304 56.3015 0 54.6674 0 52.7364V4.36033Z" fill="#EA7124"/>
<path d="M0 4.36033C0 1.95219 1.98169 0 4.42623 0H25.5738C28.0183 0 30 1.95219 30 4.36033V52.3949C30 54.2601 28.8102 55.8552 27.1329 56.477C26.2104 56.819 25.2217 56.4283 24.4416 55.8289L15.0726 48.629L5.66134 56.1652C4.90773 56.7687 3.95009 57.1761 3.03237 56.8762C1.27304 56.3015 0 54.6674 0 52.7364V4.36033Z" fill="url(#lines_gradient)" fill-opacity="0.55"/>
<path d="M14.6569 20.5645L15.8666 15.4839H20.9472" stroke="white" stroke-width="0.967742" stroke-linecap="round" stroke-linejoin="round"/>
<path d="M20.2214 17.9032C21.5576 17.9032 22.6407 16.8201 22.6407 15.4839C22.6407 14.1477 21.5576 13.0645 20.2214 13.0645C18.8852 13.0645 17.802 14.1477 17.802 15.4839C17.802 16.8201 18.8852 17.9032 20.2214 17.9032Z" fill="white"/>
<path d="M15.0683 34.3548C20.8389 34.3548 25.2739 31.1053 25.2739 27.0968C25.2739 26.8858 25.2616 26.6776 25.2375 26.4724C25.5841 26.1327 25.8521 25.7011 25.9995 25.2008C26.4536 23.6601 25.5923 22.0519 24.0756 21.6088C23.3367 21.3929 22.5786 21.4934 21.9428 21.8314C20.1484 20.7316 17.7529 20.0806 15.0683 20.0806C12.3475 20.0806 9.9236 20.7492 8.12149 21.8761C7.46974 21.5026 6.67832 21.3837 5.9078 21.6088C4.39115 22.0519 3.52978 23.6601 3.98387 25.2008C4.15054 25.7664 4.47128 26.2442 4.88553 26.6006C4.87032 26.7642 4.86261 26.9296 4.86261 27.0968C4.86261 31.1053 9.29763 34.3548 15.0683 34.3548Z" fill="white"/>
<path d="M12.9355 26.129C12.9355 27.198 12.0689 28.0645 11 28.0645C9.93105 28.0645 9.06451 27.198 9.06451 26.129C9.06451 25.0601 9.93105 24.1935 11 24.1935C12.0689 24.1935 12.9355 25.0601 12.9355 26.129Z" fill="#E85728"/>
<path d="M20.1936 26.129C20.1936 27.198 19.327 28.0645 18.2581 28.0645C17.1891 28.0645 16.3226 27.198 16.3226 26.129C16.3226 25.0601 17.1891 24.1935 18.2581 24.1935C19.327 24.1935 20.1936 25.0601 20.1936 26.129Z" fill="#E85728"/>
<path d="M18.8321 30.3011C19.3742 30.4156 19.6316 31.0207 19.2079 31.3778C18.8938 31.6425 18.5129 31.8768 18.0767 32.0707C17.2179 32.4525 16.188 32.659 15.1307 32.6613C14.0733 32.6636 13.0412 32.4616 12.1781 32.0835C11.7393 31.8913 11.3554 31.6584 11.0381 31.3947C10.6119 31.0405 10.865 30.4333 11.4068 30.3164C11.7592 30.2403 12.1138 30.4139 12.3795 30.6577C12.601 30.861 12.8811 31.0391 13.2082 31.1823C13.7684 31.4277 14.4382 31.5588 15.1245 31.5573C15.8107 31.5558 16.479 31.4219 17.0364 31.174C17.3593 31.0305 17.6356 30.8529 17.854 30.6506C18.1205 30.4039 18.4767 30.2261 18.8321 30.3011Z" fill="#A63612"/>
<path d="M21.786 33.7508C22.3458 34.074 22.3793 34.8611 21.8088 35.1651C20.9887 35.6021 20.0712 35.9605 19.0845 36.2274C17.5967 36.6299 15.9886 36.8142 14.3767 36.767C12.7647 36.7198 11.1893 36.4422 9.76419 35.9545C8.84946 35.6414 8.01138 35.2467 7.27368 34.7835C6.70853 34.4287 6.80929 33.6241 7.41099 33.3356C7.74373 33.176 8.13649 33.2333 8.4354 33.4497C9.11416 33.9412 9.92445 34.3519 10.8296 34.6617C11.9574 35.0477 13.2042 35.2674 14.4798 35.3047C15.7554 35.3421 17.028 35.1962 18.2055 34.8778C19.171 34.6166 20.0528 34.2446 20.8088 33.7812C21.1073 33.5983 21.4828 33.5757 21.786 33.7508Z" fill="white"/>
<path d="M15 5C15.5523 5 16 4.55228 16 4C16 3.44772 15.5523 3 15 3C14.4477 3 14 3.44772 14 4C14 4.55228 14.4477 5 15 5Z" fill="white" fill-opacity="0.8"/>
<path d="M4 2V6H6V5.2H5V2.8H6V2H4Z" fill="white" fill-opacity="0.8"/>
<path d="M26 2V6H24V5.2H25V2.8H24V2H26Z" fill="white" fill-opacity="0.8"/>
<defs>
<linearGradient id="lines_gradient" x1="-2.41239" y1="26.2315" x2="28.4801" y2="20.403" gradientUnits="userSpaceOnUse">
<stop offset="0.4" stop-color="#FF6F3C" stop-opacity="0"/>
<stop offset="0.4" stop-color="#FF6F3C"/>
<stop offset="0.6" stop-color="#FF6F3C"/>
<stop offset="0.6" stop-color="#FF9A3C"/>
<stop offset="0.8" stop-color="#FF9A3C"/>
<stop offset="0.8" stop-color="#FFC93C"/>
<stop offset="1" stop-color="#FFC93C"/>
</linearGradient>
</defs>
</svg>
